<svg xmlns="http://www.w3.org/2000/svg" viewBox="0 0 1280 720" font-family="'Poppins','Trebuchet MS','Segoe UI',Helvetica,Arial,sans-serif">
  <defs>
    <filter id="shadow" x="-20%" y="-20%" width="140%" height="140%">
      <feDropShadow dx="0" dy="3" stdDeviation="6" flood-color="#1b2a3a" flood-opacity="0.10"/>
    </filter>
    <marker id="arrow" viewBox="0 0 10 10" refX="9" refY="5" markerWidth="7" markerHeight="7" orient="auto-start-reverse">
      <path d="M0 0 L10 5 L0 10 z" fill="#94A3B8"/>
    </marker>
    <marker id="arrowG" viewBox="0 0 10 10" refX="9" refY="5" markerWidth="7" markerHeight="7" orient="auto-start-reverse">
      <path d="M0 0 L10 5 L0 10 z" fill="#149E48"/>
    </marker>
    <marker id="arrowR" viewBox="0 0 10 10" refX="9" refY="5" markerWidth="7" markerHeight="7" orient="auto-start-reverse">
      <path d="M0 0 L10 5 L0 10 z" fill="#D64545"/>
    </marker>
  </defs>

  <rect x="0" y="0" width="1280" height="720" fill="#F7F9FB"/>
  <rect x="64" y="44" width="6" height="34" rx="3" fill="#149E48"/>
  <text x="84" y="72" font-family="'Poppins','Trebuchet MS','Segoe UI',Helvetica,Arial,sans-serif" font-size="34" font-weight="700" fill="#0B7A38">Auth0 Identity → Ownership Checks</text>
  <text x="64" y="92" font-family="'Poppins','Trebuchet MS','Segoe UI',Helvetica,Arial,sans-serif" font-size="18" fill="#5F6B7A">How a login becomes a per-request authorization check</text>


<rect x="60" y="150" width="1155" height="180" rx="18" fill="#E6F4EA" stroke="#D2EAD9" stroke-width="1.5"/>
<text x="150" y="178" text-anchor="start" font-family="'Poppins','Trebuchet MS','Segoe UI',Helvetica,Arial,sans-serif" font-size="14" font-weight="700" fill="#0B7A38">ONE TIME · PROVISIONING</text>
<rect x="80" y="225" width="165" height="74" rx="14" fill="#FFFFFF" stroke="#CBD5DD" stroke-width="1.5" filter="url(#shadow)"/>
<rect x="80" y="225" width="6" height="74" rx="3" fill="#149E48"/>
<text x="162.5" y="258.0" text-anchor="middle" font-family="'Poppins','Trebuchet MS','Segoe UI',Helvetica,Arial,sans-serif" font-size="16" font-weight="700" fill="#2E3A44">User signs in</text>
<text x="162.5" y="278.0" text-anchor="middle" font-family="'Poppins','Trebuchet MS','Segoe UI',Helvetica,Arial,sans-serif" font-size="13" fill="#5F6B7A">Auth0</text>
<rect x="300" y="225" width="150" height="74" rx="14" fill="#FFFFFF" stroke="#CBD5DD" stroke-width="1.5" filter="url(#shadow)"/>
<rect x="300" y="225" width="6" height="74" rx="3" fill="#149E48"/>
<text x="375.0" y="258.0" text-anchor="middle" font-family="'Poppins','Trebuchet MS','Segoe UI',Helvetica,Arial,sans-serif" font-size="16" font-weight="700" fill="#2E3A44">token</text>
<text x="375.0" y="278.0" text-anchor="middle" font-family="'Poppins','Trebuchet MS','Segoe UI',Helvetica,Arial,sans-serif" font-size="13" fill="#5F6B7A">(JWT)</text>
<rect x="505" y="225" width="210" height="74" rx="14" fill="#FFFFFF" stroke="#CBD5DD" stroke-width="1.5" filter="url(#shadow)"/>
<rect x="505" y="225" width="6" height="74" rx="3" fill="#149E48"/>
<text x="610.0" y="258.0" text-anchor="middle" font-family="'Poppins','Trebuchet MS','Segoe UI',Helvetica,Arial,sans-serif" font-size="16" font-weight="700" fill="#0B7A38">POST</text>
<text x="610.0" y="278.0" text-anchor="middle" font-family="'Poppins','Trebuchet MS','Segoe UI',Helvetica,Arial,sans-serif" font-size="13" fill="#5F6B7A">/auth/sync-user</text>
<rect x="775" y="225" width="210" height="74" rx="14" fill="#FFFFFF" stroke="#CBD5DD" stroke-width="1.5" filter="url(#shadow)"/>
<rect x="775" y="225" width="6" height="74" rx="3" fill="#7C5CC4"/>
<text x="880.0" y="258.0" text-anchor="middle" font-family="'Poppins','Trebuchet MS','Segoe UI',Helvetica,Arial,sans-serif" font-size="16" font-weight="700" fill="#2E3A44">users table</text>
<text x="880.0" y="278.0" text-anchor="middle" font-family="'Poppins','Trebuchet MS','Segoe UI',Helvetica,Arial,sans-serif" font-size="13" fill="#5F6B7A">store auth0_id</text>
<rect x="1040" y="225" width="150" height="74" rx="14" fill="#FFFFFF" stroke="#CBD5DD" stroke-width="1.5" filter="url(#shadow)"/>
<rect x="1040" y="225" width="6" height="74" rx="3" fill="#149E48"/>
<text x="1115.0" y="258.0" text-anchor="middle" font-family="'Poppins','Trebuchet MS','Segoe UI',Helvetica,Arial,sans-serif" font-size="16" font-weight="700" fill="#2E3A44">local id</text>
<text x="1115.0" y="278.0" text-anchor="middle" font-family="'Poppins','Trebuchet MS','Segoe UI',Helvetica,Arial,sans-serif" font-size="13" fill="#5F6B7A">e.g. 7</text>
<line x1="245" y1="262" x2="298" y2="262" stroke="#149E48" stroke-width="2" marker-end="url(#arrowG)"/>
<line x1="450" y1="262" x2="503" y2="262" stroke="#149E48" stroke-width="2" marker-end="url(#arrowG)"/>
<line x1="715" y1="262" x2="773" y2="262" stroke="#149E48" stroke-width="2" marker-end="url(#arrowG)"/>
<line x1="985" y1="262" x2="1038" y2="262" stroke="#149E48" stroke-width="2" marker-end="url(#arrowG)"/>
<rect x="60" y="360" width="1155" height="235" rx="18" fill="#E7F0F8" stroke="#CFE0EF" stroke-width="1.5"/>
<text x="150" y="388" text-anchor="start" font-family="'Poppins','Trebuchet MS','Segoe UI',Helvetica,Arial,sans-serif" font-size="14" font-weight="700" fill="#2B5E8C">EVERY REQUEST · AUTHORIZATION</text>
<rect x="80" y="430" width="230" height="80" rx="14" fill="#FFFFFF" stroke="#CBD5DD" stroke-width="1.5" filter="url(#shadow)"/>
<rect x="80" y="430" width="6" height="80" rx="3" fill="#3B82C4"/>
<text x="195.0" y="466.0" text-anchor="middle" font-family="'Poppins','Trebuchet MS','Segoe UI',Helvetica,Arial,sans-serif" font-size="15" font-weight="700" fill="#2B5E8C">PUT /update_reviews</text>
<text x="195.0" y="486.0" text-anchor="middle" font-family="'Poppins','Trebuchet MS','Segoe UI',Helvetica,Arial,sans-serif" font-size="12" fill="#5F6B7A">header: X-Auth0-User-ID</text>
<rect x="360" y="430" width="215" height="80" rx="14" fill="#FFFFFF" stroke="#CBD5DD" stroke-width="1.5" filter="url(#shadow)"/>
<rect x="360" y="430" width="6" height="80" rx="3" fill="#3B82C4"/>
<text x="467.5" y="466.0" text-anchor="middle" font-family="'Poppins','Trebuchet MS','Segoe UI',Helvetica,Arial,sans-serif" font-size="15" font-weight="700" fill="#2B5E8C">current_user_id()</text>
<text x="467.5" y="486.0" text-anchor="middle" font-family="'Poppins','Trebuchet MS','Segoe UI',Helvetica,Arial,sans-serif" font-size="12" fill="#5F6B7A">header → local id</text>
<rect x="625" y="430" width="240" height="80" rx="14" fill="#fff" stroke="#3B82C4" stroke-width="1.5" filter="url(#shadow)"/>
<rect x="625" y="430" width="6" height="80" rx="3" fill="#3B82C4"/>
<text x="745.0" y="466.0" text-anchor="middle" font-family="'Poppins','Trebuchet MS','Segoe UI',Helvetica,Arial,sans-serif" font-size="15" font-weight="700" fill="#2B5E8C">ownership check</text>
<text x="745.0" y="486.0" text-anchor="middle" font-family="'Poppins','Trebuchet MS','Segoe UI',Helvetica,Arial,sans-serif" font-size="12" fill="#5F6B7A">review.user_id == id ?</text>
<line x1="310" y1="470" x2="358" y2="470" stroke="#3B82C4" stroke-width="2" marker-end="url(#arrow)"/>
<line x1="575" y1="470" x2="623" y2="470" stroke="#3B82C4" stroke-width="2" marker-end="url(#arrow)"/>
<rect x="920" y="410" width="230" height="56" rx="14" fill="#E6F4EA" stroke="#149E48" stroke-width="1.5"/>
<text x="1035.0" y="444.0" text-anchor="middle" font-family="'Poppins','Trebuchet MS','Segoe UI',Helvetica,Arial,sans-serif" font-size="15" font-weight="700" fill="#0B7A38">200 — update allowed</text>
<rect x="920" y="488" width="230" height="56" rx="14" fill="#FBEAEA" stroke="#D64545" stroke-width="1.5"/>
<text x="1035.0" y="522.0" text-anchor="middle" font-family="'Poppins','Trebuchet MS','Segoe UI',Helvetica,Arial,sans-serif" font-size="15" font-weight="700" fill="#D64545">403 — not the owner</text>
<path d="M865 470 C 892 470, 895 438, 918 438" fill="none" stroke="#149E48" stroke-width="2.2" marker-end="url(#arrowG)"/>
<path d="M865 470 C 892 470, 895 516, 918 516" fill="none" stroke="#D64545" stroke-width="2.2" marker-end="url(#arrowR)"/>
<text x="897" y="432" text-anchor="middle" font-family="'Poppins','Trebuchet MS','Segoe UI',Helvetica,Arial,sans-serif" font-size="12" font-weight="600" fill="#0B7A38">yes</text>
<text x="897" y="538" text-anchor="middle" font-family="'Poppins','Trebuchet MS','Segoe UI',Helvetica,Arial,sans-serif" font-size="12" font-weight="600" fill="#D64545">no</text>
</svg>
