<svg xmlns="http://www.w3.org/2000/svg" viewBox="0 0 1280 720" font-family="'Poppins','Trebuchet MS','Segoe UI',Helvetica,Arial,sans-serif">
  <defs>
    <filter id="shadow" x="-20%" y="-20%" width="140%" height="140%">
      <feDropShadow dx="0" dy="3" stdDeviation="6" flood-color="#1b2a3a" flood-opacity="0.10"/>
    </filter>
    <marker id="arrow" viewBox="0 0 10 10" refX="9" refY="5" markerWidth="7" markerHeight="7" orient="auto-start-reverse">
      <path d="M0 0 L10 5 L0 10 z" fill="#94A3B8"/>
    </marker>
    <marker id="arrowG" viewBox="0 0 10 10" refX="9" refY="5" markerWidth="7" markerHeight="7" orient="auto-start-reverse">
      <path d="M0 0 L10 5 L0 10 z" fill="#149E48"/>
    </marker>
    <marker id="arrowR" viewBox="0 0 10 10" refX="9" refY="5" markerWidth="7" markerHeight="7" orient="auto-start-reverse">
      <path d="M0 0 L10 5 L0 10 z" fill="#D64545"/>
    </marker>
  </defs>

  <rect x="0" y="0" width="1280" height="720" fill="#F7F9FB"/>
  <rect x="64" y="44" width="6" height="34" rx="3" fill="#149E48"/>
  <text x="84" y="72" font-family="'Poppins','Trebuchet MS','Segoe UI',Helvetica,Arial,sans-serif" font-size="34" font-weight="700" fill="#0B7A38">Database — Entity Relationships</text>
  <text x="64" y="92" font-family="'Poppins','Trebuchet MS','Segoe UI',Helvetica,Arial,sans-serif" font-size="18" fill="#5F6B7A">Five tables linked by foreign keys, guarded by constraints</text>


<path d="M515 500 C 430.0 500, 430.0 250, 345 250" fill="none" stroke="#3B82C4" stroke-width="2" stroke-dasharray="6 5"/>
<circle cx="515" cy="500" r="4" fill="#3B82C4"/>
<circle cx="345" cy="250" r="4" fill="#3B82C4"/>
<path d="M780 500 C 857.5 500, 857.5 250, 935 250" fill="none" stroke="#3B82C4" stroke-width="2" stroke-dasharray="6 5"/>
<circle cx="780" cy="500" r="4" fill="#3B82C4"/>
<circle cx="935" cy="250" r="4" fill="#3B82C4"/>
<path d="M220 470 C 220.0 470, 220.0 320, 220 320" fill="none" stroke="#3B82C4" stroke-width="2" stroke-dasharray="6 5"/>
<circle cx="220" cy="470" r="4" fill="#3B82C4"/>
<circle cx="220" cy="320" r="4" fill="#3B82C4"/>
<path d="M345 520 C 640.0 520, 640.0 250, 935 250" fill="none" stroke="#3B82C4" stroke-width="2" stroke-dasharray="6 5"/>
<circle cx="345" cy="520" r="4" fill="#3B82C4"/>
<circle cx="935" cy="250" r="4" fill="#3B82C4"/>
<path d="M1062 470 C 1062.0 470, 1062.0 350, 1062 350" fill="none" stroke="#3B82C4" stroke-width="2" stroke-dasharray="6 5"/>
<circle cx="1062" cy="470" r="4" fill="#3B82C4"/>
<circle cx="1062" cy="350" r="4" fill="#3B82C4"/>
<rect x="95" y="150" width="250" height="182" rx="12" fill="#FFFFFF" stroke="#CBD5DD" stroke-width="1.5" filter="url(#shadow)"/>
<path d="M95 190 L95 162 Q95 150 107 150 L333 150 Q345 150 345 162 L345 190 Z" fill="#0B7A38"/>
<text x="220.0" y="176" text-anchor="middle" font-family="'Poppins','Trebuchet MS','Segoe UI',Helvetica,Arial,sans-serif" font-size="17" font-weight="700" fill="#fff">users</text>
<text x="111" y="212.0" font-family="'SFMono-Regular','Consolas','Liberation Mono',Menlo,monospace" font-size="13" fill="#2E3A44">id</text>
<rect x="309" y="202" width="22" height="18" rx="9.0" fill="#149E48"/><text x="320.0" y="214.8" text-anchor="middle" font-family="'Poppins','Trebuchet MS','Segoe UI',Helvetica,Arial,sans-serif" font-size="10.5" font-weight="600" fill="#fff">PK</text>
<text x="111" y="238.0" font-family="'SFMono-Regular','Consolas','Liberation Mono',Menlo,monospace" font-size="13" fill="#2E3A44">user_name</text>
<text x="111" y="264.0" font-family="'SFMono-Regular','Consolas','Liberation Mono',Menlo,monospace" font-size="13" fill="#2E3A44">email</text>
<text x="111" y="290.0" font-family="'SFMono-Regular','Consolas','Liberation Mono',Menlo,monospace" font-size="13" fill="#2E3A44">auth0_id</text>
<rect x="281" y="280" width="50" height="18" rx="9.0" fill="#EFEAF8"/><text x="306.0" y="292.8" text-anchor="middle" font-family="'Poppins','Trebuchet MS','Segoe UI',Helvetica,Arial,sans-serif" font-size="10.5" font-weight="600" fill="#7a4ec4">UNIQUE</text>
<text x="111" y="316.0" font-family="'SFMono-Regular','Consolas','Liberation Mono',Menlo,monospace" font-size="13" fill="#2E3A44">avatar_url</text>
<rect x="935" y="150" width="255" height="208" rx="12" fill="#FFFFFF" stroke="#CBD5DD" stroke-width="1.5" filter="url(#shadow)"/>
<path d="M935 190 L935 162 Q935 150 947 150 L1178 150 Q1190 150 1190 162 L1190 190 Z" fill="#0B7A38"/>
<text x="1062.5" y="176" text-anchor="middle" font-family="'Poppins','Trebuchet MS','Segoe UI',Helvetica,Arial,sans-serif" font-size="17" font-weight="700" fill="#fff">businesses</text>
<text x="951" y="212.0" font-family="'SFMono-Regular','Consolas','Liberation Mono',Menlo,monospace" font-size="13" fill="#2E3A44">id</text>
<rect x="1154" y="202" width="22" height="18" rx="9.0" fill="#149E48"/><text x="1165.0" y="214.8" text-anchor="middle" font-family="'Poppins','Trebuchet MS','Segoe UI',Helvetica,Arial,sans-serif" font-size="10.5" font-weight="600" fill="#fff">PK</text>
<text x="951" y="238.0" font-family="'SFMono-Regular','Consolas','Liberation Mono',Menlo,monospace" font-size="13" fill="#2E3A44">name</text>
<text x="951" y="264.0" font-family="'SFMono-Regular','Consolas','Liberation Mono',Menlo,monospace" font-size="13" fill="#2E3A44">category</text>
<text x="951" y="290.0" font-family="'SFMono-Regular','Consolas','Liberation Mono',Menlo,monospace" font-size="13" fill="#2E3A44">rating</text>
<rect x="1105" y="280" width="71" height="18" rx="9.0" fill="#F8EFD9"/><text x="1140.5" y="292.8" text-anchor="middle" font-family="'Poppins','Trebuchet MS','Segoe UI',Helvetica,Arial,sans-serif" font-size="10.5" font-weight="600" fill="#C98A1E">CHECK 1–5</text>
<text x="951" y="316.0" font-family="'SFMono-Regular','Consolas','Liberation Mono',Menlo,monospace" font-size="13" fill="#2E3A44">latitude</text>
<text x="951" y="342.0" font-family="'SFMono-Regular','Consolas','Liberation Mono',Menlo,monospace" font-size="13" fill="#2E3A44">longitude</text>
<rect x="95" y="470" width="250" height="156" rx="12" fill="#FFFFFF" stroke="#CBD5DD" stroke-width="1.5" filter="url(#shadow)"/>
<path d="M95 510 L95 482 Q95 470 107 470 L333 470 Q345 470 345 482 L345 510 Z" fill="#0B7A38"/>
<text x="220.0" y="496" text-anchor="middle" font-family="'Poppins','Trebuchet MS','Segoe UI',Helvetica,Arial,sans-serif" font-size="17" font-weight="700" fill="#fff">favorites</text>
<text x="111" y="532.0" font-family="'SFMono-Regular','Consolas','Liberation Mono',Menlo,monospace" font-size="13" fill="#2E3A44">id</text>
<rect x="309" y="522" width="22" height="18" rx="9.0" fill="#149E48"/><text x="320.0" y="534.8" text-anchor="middle" font-family="'Poppins','Trebuchet MS','Segoe UI',Helvetica,Arial,sans-serif" font-size="10.5" font-weight="600" fill="#fff">PK</text>
<text x="111" y="558.0" font-family="'SFMono-Regular','Consolas','Liberation Mono',Menlo,monospace" font-size="13" fill="#2E3A44">user_id</text>
<rect x="309" y="548" width="22" height="18" rx="9.0" fill="#E7F0F8"/><text x="320.0" y="560.8" text-anchor="middle" font-family="'Poppins','Trebuchet MS','Segoe UI',Helvetica,Arial,sans-serif" font-size="10.5" font-weight="600" fill="#2B5E8C">FK</text>
<text x="111" y="584.0" font-family="'SFMono-Regular','Consolas','Liberation Mono',Menlo,monospace" font-size="13" fill="#2E3A44">business_id</text>
<rect x="309" y="574" width="22" height="18" rx="9.0" fill="#E7F0F8"/><text x="320.0" y="586.8" text-anchor="middle" font-family="'Poppins','Trebuchet MS','Segoe UI',Helvetica,Arial,sans-serif" font-size="10.5" font-weight="600" fill="#2B5E8C">FK</text>
<text x="111" y="610.0" font-family="'SFMono-Regular','Consolas','Liberation Mono',Menlo,monospace" font-size="13" fill="#2E3A44">UNIQUE(user,biz)</text>
<rect x="281" y="600" width="50" height="18" rx="9.0" fill="#EFEAF8"/><text x="306.0" y="612.8" text-anchor="middle" font-family="'Poppins','Trebuchet MS','Segoe UI',Helvetica,Arial,sans-serif" font-size="10.5" font-weight="600" fill="#7a4ec4">UNIQUE</text>
<rect x="515" y="440" width="265" height="182" rx="12" fill="#FFFFFF" stroke="#CBD5DD" stroke-width="1.5" filter="url(#shadow)"/>
<path d="M515 480 L515 452 Q515 440 527 440 L768 440 Q780 440 780 452 L780 480 Z" fill="#0B7A38"/>
<text x="647.5" y="466" text-anchor="middle" font-family="'Poppins','Trebuchet MS','Segoe UI',Helvetica,Arial,sans-serif" font-size="17" font-weight="700" fill="#fff">reviews</text>
<text x="531" y="502.0" font-family="'SFMono-Regular','Consolas','Liberation Mono',Menlo,monospace" font-size="13" fill="#2E3A44">id</text>
<rect x="744" y="492" width="22" height="18" rx="9.0" fill="#149E48"/><text x="755.0" y="504.8" text-anchor="middle" font-family="'Poppins','Trebuchet MS','Segoe UI',Helvetica,Arial,sans-serif" font-size="10.5" font-weight="600" fill="#fff">PK</text>
<text x="531" y="528.0" font-family="'SFMono-Regular','Consolas','Liberation Mono',Menlo,monospace" font-size="13" fill="#2E3A44">business_id</text>
<rect x="744" y="518" width="22" height="18" rx="9.0" fill="#E7F0F8"/><text x="755.0" y="530.8" text-anchor="middle" font-family="'Poppins','Trebuchet MS','Segoe UI',Helvetica,Arial,sans-serif" font-size="10.5" font-weight="600" fill="#2B5E8C">FK</text>
<text x="531" y="554.0" font-family="'SFMono-Regular','Consolas','Liberation Mono',Menlo,monospace" font-size="13" fill="#2E3A44">user_id</text>
<rect x="744" y="544" width="22" height="18" rx="9.0" fill="#E7F0F8"/><text x="755.0" y="556.8" text-anchor="middle" font-family="'Poppins','Trebuchet MS','Segoe UI',Helvetica,Arial,sans-serif" font-size="10.5" font-weight="600" fill="#2B5E8C">FK</text>
<text x="531" y="580.0" font-family="'SFMono-Regular','Consolas','Liberation Mono',Menlo,monospace" font-size="13" fill="#2E3A44">rating</text>
<rect x="695" y="570" width="71" height="18" rx="9.0" fill="#F8EFD9"/><text x="730.5" y="582.8" text-anchor="middle" font-family="'Poppins','Trebuchet MS','Segoe UI',Helvetica,Arial,sans-serif" font-size="10.5" font-weight="600" fill="#C98A1E">CHECK 1–5</text>
<text x="531" y="606.0" font-family="'SFMono-Regular','Consolas','Liberation Mono',Menlo,monospace" font-size="13" fill="#2E3A44">comment</text>
<rect x="935" y="470" width="255" height="182" rx="12" fill="#FFFFFF" stroke="#CBD5DD" stroke-width="1.5" filter="url(#shadow)"/>
<path d="M935 510 L935 482 Q935 470 947 470 L1178 470 Q1190 470 1190 482 L1190 510 Z" fill="#0B7A38"/>
<text x="1062.5" y="496" text-anchor="middle" font-family="'Poppins','Trebuchet MS','Segoe UI',Helvetica,Arial,sans-serif" font-size="17" font-weight="700" fill="#fff">deals</text>
<text x="951" y="532.0" font-family="'SFMono-Regular','Consolas','Liberation Mono',Menlo,monospace" font-size="13" fill="#2E3A44">id</text>
<rect x="1154" y="522" width="22" height="18" rx="9.0" fill="#149E48"/><text x="1165.0" y="534.8" text-anchor="middle" font-family="'Poppins','Trebuchet MS','Segoe UI',Helvetica,Arial,sans-serif" font-size="10.5" font-weight="600" fill="#fff">PK</text>
<text x="951" y="558.0" font-family="'SFMono-Regular','Consolas','Liberation Mono',Menlo,monospace" font-size="13" fill="#2E3A44">business_id</text>
<rect x="1154" y="548" width="22" height="18" rx="9.0" fill="#E7F0F8"/><text x="1165.0" y="560.8" text-anchor="middle" font-family="'Poppins','Trebuchet MS','Segoe UI',Helvetica,Arial,sans-serif" font-size="10.5" font-weight="600" fill="#2B5E8C">FK</text>
<text x="951" y="584.0" font-family="'SFMono-Regular','Consolas','Liberation Mono',Menlo,monospace" font-size="13" fill="#2E3A44">code</text>
<text x="951" y="610.0" font-family="'SFMono-Regular','Consolas','Liberation Mono',Menlo,monospace" font-size="13" fill="#2E3A44">end_date</text>
<text x="951" y="636.0" font-family="'SFMono-Regular','Consolas','Liberation Mono',Menlo,monospace" font-size="13" fill="#2E3A44">is_active</text>
<text x="360" y="660" text-anchor="start" font-family="'Poppins','Trebuchet MS','Segoe UI',Helvetica,Arial,sans-serif" font-size="12" font-weight="600" fill="#3B82C4">FK foreign key</text>
<text x="490" y="660" text-anchor="start" font-family="'Poppins','Trebuchet MS','Segoe UI',Helvetica,Arial,sans-serif" font-size="12" font-weight="600" fill="#7a4ec4">UNIQUE no duplicates</text>
<text x="680" y="660" text-anchor="start" font-family="'Poppins','Trebuchet MS','Segoe UI',Helvetica,Arial,sans-serif" font-size="12" font-weight="600" fill="#C98A1E">CHECK value rule enforced in DB</text>
</svg>
