<svg xmlns="http://www.w3.org/2000/svg" viewBox="0 0 1280 720" font-family="'Poppins','Trebuchet MS','Segoe UI',Helvetica,Arial,sans-serif">
  <defs>
    <filter id="shadow" x="-20%" y="-20%" width="140%" height="140%">
      <feDropShadow dx="0" dy="3" stdDeviation="6" flood-color="#1b2a3a" flood-opacity="0.10"/>
    </filter>
    <marker id="arrow" viewBox="0 0 10 10" refX="9" refY="5" markerWidth="7" markerHeight="7" orient="auto-start-reverse">
      <path d="M0 0 L10 5 L0 10 z" fill="#94A3B8"/>
    </marker>
    <marker id="arrowG" viewBox="0 0 10 10" refX="9" refY="5" markerWidth="7" markerHeight="7" orient="auto-start-reverse">
      <path d="M0 0 L10 5 L0 10 z" fill="#149E48"/>
    </marker>
    <marker id="arrowR" viewBox="0 0 10 10" refX="9" refY="5" markerWidth="7" markerHeight="7" orient="auto-start-reverse">
      <path d="M0 0 L10 5 L0 10 z" fill="#D64545"/>
    </marker>
  </defs>

  <rect x="0" y="0" width="1280" height="720" fill="#F7F9FB"/>
  <rect x="64" y="44" width="6" height="34" rx="3" fill="#149E48"/>
  <text x="84" y="72" font-family="'Poppins','Trebuchet MS','Segoe UI',Helvetica,Arial,sans-serif" font-size="34" font-weight="700" fill="#0B7A38">WebSocket Relay — How Voice Moves the Screen</text>
  <text x="64" y="92" font-family="'Poppins','Trebuchet MS','Segoe UI',Helvetica,Arial,sans-serif" font-size="18" fill="#5F6B7A">One voice command is broadcast to every open browser</text>


<rect x="70" y="330" width="160" height="76" rx="14" fill="#FFFFFF" stroke="#CBD5DD" stroke-width="1.5" filter="url(#shadow)"/>
<rect x="70" y="330" width="6" height="76" rx="3" fill="#7C5CC4"/>
<text x="150.0" y="364.0" text-anchor="middle" font-family="'Poppins','Trebuchet MS','Segoe UI',Helvetica,Arial,sans-serif" font-size="17" font-weight="700" fill="#2E3A44">MCP tool</text>
<text x="150.0" y="384.0" text-anchor="middle" font-family="'Poppins','Trebuchet MS','Segoe UI',Helvetica,Arial,sans-serif" font-size="13" fill="#7C5CC4">navigate_to(…)</text>
<rect x="285" y="330" width="195" height="76" rx="14" fill="#FFFFFF" stroke="#CBD5DD" stroke-width="1.5" filter="url(#shadow)"/>
<rect x="285" y="330" width="6" height="76" rx="3" fill="#3B82C4"/>
<text x="382.5" y="364.0" text-anchor="middle" font-family="'Poppins','Trebuchet MS','Segoe UI',Helvetica,Arial,sans-serif" font-size="17" font-weight="700" fill="#2B5E8C">POST</text>
<text x="382.5" y="384.0" text-anchor="middle" font-family="'Poppins','Trebuchet MS','Segoe UI',Helvetica,Arial,sans-serif" font-size="13" fill="#3B82C4">/agent/navigate</text>
<rect x="540" y="318" width="215" height="100" rx="14" fill="#E6F4EA" stroke="#149E48" stroke-width="1.5" filter="url(#shadow)"/>
<rect x="540" y="318" width="6" height="100" rx="3" fill="#149E48"/>
<text x="647.5" y="364.0" text-anchor="middle" font-family="'Poppins','Trebuchet MS','Segoe UI',Helvetica,Arial,sans-serif" font-size="18" font-weight="700" fill="#0B7A38">Flask API</text>
<text x="647.5" y="384.0" text-anchor="middle" font-family="'Poppins','Trebuchet MS','Segoe UI',Helvetica,Arial,sans-serif" font-size="13" fill="#5F6B7A">send_to_frontend()</text>
<line x1="230" y1="368" x2="283" y2="368" stroke="#94A3B8" stroke-width="2" marker-end="url(#arrow)"/>
<line x1="480" y1="368" x2="538" y2="368" stroke="#94A3B8" stroke-width="2" marker-end="url(#arrow)"/>
<rect x="960" y="168" width="200" height="70" rx="14" fill="#FFFFFF" stroke="#CBD5DD" stroke-width="1.5" filter="url(#shadow)"/>
<rect x="960" y="168" width="6" height="70" rx="3" fill="#149E48"/>
<text x="1060.0" y="199.0" text-anchor="middle" font-family="'Poppins','Trebuchet MS','Segoe UI',Helvetica,Arial,sans-serif" font-size="16" font-weight="700" fill="#2E3A44">React client</text>
<text x="1060.0" y="219.0" text-anchor="middle" font-family="'Poppins','Trebuchet MS','Segoe UI',Helvetica,Arial,sans-serif" font-size="13" fill="#5F6B7A">Browser A</text>
<path d="M755 368 C 850 368, 860 203, 958 203" fill="none" stroke="#149E48" stroke-width="2.2" marker-end="url(#arrowG)"/>
<rect x="960" y="330" width="200" height="70" rx="14" fill="#FFFFFF" stroke="#CBD5DD" stroke-width="1.5" filter="url(#shadow)"/>
<rect x="960" y="330" width="6" height="70" rx="3" fill="#149E48"/>
<text x="1060.0" y="361.0" text-anchor="middle" font-family="'Poppins','Trebuchet MS','Segoe UI',Helvetica,Arial,sans-serif" font-size="16" font-weight="700" fill="#2E3A44">React client</text>
<text x="1060.0" y="381.0" text-anchor="middle" font-family="'Poppins','Trebuchet MS','Segoe UI',Helvetica,Arial,sans-serif" font-size="13" fill="#5F6B7A">Browser B</text>
<path d="M755 368 C 850 368, 860 365, 958 365" fill="none" stroke="#149E48" stroke-width="2.2" marker-end="url(#arrowG)"/>
<rect x="960" y="492" width="200" height="70" rx="14" fill="#FFFFFF" stroke="#CBD5DD" stroke-width="1.5" filter="url(#shadow)"/>
<rect x="960" y="492" width="6" height="70" rx="3" fill="#149E48"/>
<text x="1060.0" y="523.0" text-anchor="middle" font-family="'Poppins','Trebuchet MS','Segoe UI',Helvetica,Arial,sans-serif" font-size="16" font-weight="700" fill="#2E3A44">React client</text>
<text x="1060.0" y="543.0" text-anchor="middle" font-family="'Poppins','Trebuchet MS','Segoe UI',Helvetica,Arial,sans-serif" font-size="13" fill="#5F6B7A">Browser C</text>
<path d="M755 368 C 850 368, 860 527, 958 527" fill="none" stroke="#149E48" stroke-width="2.2" marker-end="url(#arrowG)"/>
<text x="857" y="132" text-anchor="middle" font-family="'Poppins','Trebuchet MS','Segoe UI',Helvetica,Arial,sans-serif" font-size="13" font-weight="700" fill="#0B7A38">broadcast to all</text>
<text x="857" y="150" text-anchor="middle" font-family="'Poppins','Trebuchet MS','Segoe UI',Helvetica,Arial,sans-serif" font-size="13" font-weight="700" fill="#0B7A38">connected clients</text>
<text x="640" y="470" text-anchor="middle" font-family="'Poppins','Trebuchet MS','Segoe UI',Helvetica,Arial,sans-serif" font-size="15" font-weight="600" fill="#5F6B7A">One command → every open browser updates in real time.</text>
</svg>
